<?xml version="1.0" encoding="utf-8"?>
<!-- Generator: Adobe Illustrator 25.2.0, SVG Export Plug-In . SVG Version: 6.00 Build 0)  -->
<svg version="1.1" id="Layer_1" xmlns="http://www.w3.org/2000/svg" xmlns:xlink="http://www.w3.org/1999/xlink" x="0px" y="0px"
	 viewBox="0 0 447.3 447.3" style="enable-background:new 0 0 447.3 447.3;" xml:space="preserve">
<style type="text/css">
	.st0{fill:url(#SVGID_1_);}
	.st1{fill:#B2ABC6;}
	.st2{fill:#2E2E49;stroke:#000000;stroke-width:2;stroke-miterlimit:10;}
	.st3{fill:#2E2E49;}
	.st4{fill:#53527C;stroke:#000000;stroke-width:2;stroke-miterlimit:10;}
	.st5{fill:#53527C;}
</style>
<g>
	<linearGradient id="SVGID_1_" gradientUnits="userSpaceOnUse" x1="0" y1="223.6596" x2="447.3192" y2="223.6596">
		<stop  offset="1.198083e-07" style="stop-color:#42438D"/>
		<stop  offset="1" style="stop-color:#1E1E3E"/>
	</linearGradient>
	<rect class="st0" width="447.3" height="447.3"/>
	<rect x="17.2" y="17.2" class="st1" width="410.8" height="410.8"/>
	<g id="Kid_1_1_">
		<g>
			<path class="st2" d="M238.6,260.9c-2.6-11-16.3-16.4-30.5-12c-3.7,1.1-7.1,2.8-10,4.9c-0.5,0.4-1.1,0.8-1.6,1.2
				c-0.1,0-0.1,0.1-0.2,0.1c-10.5,8.4-21.9,27.6-29.6,51.7c-11.4,36-10.2,69.3,2.6,74.5c12.9,5.2,32.5-19.8,44-55.7
				c4.3-13.5,6.8-26.7,7.6-38.1C233.2,282.3,241,271,238.6,260.9z"/>
			<path class="st2" d="M314.1,260.9c2.6-11,16.3-16.4,30.5-12c3.7,1.1,7.1,2.8,10,4.9c0.5,0.4,1.1,0.8,1.6,1.2
				c0.1,0,0.1,0.1,0.2,0.1c10.5,8.4,21.9,27.6,29.6,51.7c11.4,36,10.2,69.3-2.6,74.5c-12.9,5.2-32.5-19.8-44-55.7
				c-4.3-13.5-6.8-26.7-7.6-38.1C319.4,282.3,311.6,271,314.1,260.9z"/>
		</g>
		<g>
			<path class="st2" d="M351.7,427.1c1.2-11.5,1.9-23.4,1.9-35.6c0-89.8-34.6-162.7-77.2-162.7s-77.2,72.8-77.2,162.7
				c0,12.2,0.7,24.2,1.9,35.6H351.7z"/>
		</g>
		<circle class="st2" cx="276.3" cy="197.1" r="59.1"/>
		<g>
			<polygon class="st3" points="242.3,300.1 211.7,285.2 228.6,251.7 259.2,266.5 			"/>
			<polygon class="st3" points="310.2,300.1 340.8,285.2 323.9,251.7 293.3,266.5 			"/>
		</g>
	</g>
	<g id="Kid_2_1_">
		<g>
			<path class="st4" d="M122.5,278.9c-2.4-9.8-14.6-14.6-27.2-10.7c-3.3,1-6.3,2.5-8.9,4.4c-0.5,0.3-0.9,0.7-1.4,1.1l-0.1,0.1
				c-9.4,7.5-19.6,24.6-26.4,46.2c-10.2,32.1-9.1,61.9,2.3,66.5c11.5,4.6,29-17.7,39.2-49.7c3.8-12.1,6.1-23.8,6.8-34
				C117.7,298,124.7,287.9,122.5,278.9z"/>
			<path class="st4" d="M189.9,278.9c2.4-9.8,14.6-14.6,27.2-10.7c3.3,1,6.3,2.5,8.9,4.4c0.5,0.3,0.9,0.7,1.4,1.1l0.1,0.1
				c9.4,7.5,19.6,24.6,26.4,46.2c10.2,32.1,9.1,61.9-2.3,66.5c-11.5,4.6-29-17.7-39.2-49.7c-3.8-12.1-6.1-23.8-6.8-34
				C194.6,298,187.7,287.9,189.9,278.9z"/>
		</g>
		<g>
			<path class="st4" d="M223.4,427.2c1.1-10.2,1.7-20.9,1.7-31.8c0-80.2-30.8-145.2-68.9-145.2s-68.9,65-68.9,145.2
				c0,10.9,0.6,21.6,1.7,31.8H223.4z"/>
		</g>
		<circle class="st4" cx="156.2" cy="221.9" r="52.8"/>
		<g>
			<polygon class="st5" points="125.8,314.4 98.5,301 113.6,270.7 140.9,284.2 			"/>
			<polygon class="st5" points="186.4,314.4 213.7,301 198.7,270.7 171.4,284.2 			"/>
		</g>
	</g>
</g>
</svg>
