<?xml version="1.0" encoding="utf-8"?>
<!-- Generator: Adobe Illustrator 25.2.0, SVG Export Plug-In . SVG Version: 6.00 Build 0)  -->
<svg version="1.1" id="Layer_1" xmlns="http://www.w3.org/2000/svg" xmlns:xlink="http://www.w3.org/1999/xlink" x="0px" y="0px"
	 viewBox="0 0 447.2 447.2" style="enable-background:new 0 0 447.2 447.2;" xml:space="preserve">
<style type="text/css">
	.st0{fill:url(#SVGID_1_);}
	.st1{fill:#B2ABC6;}
	.st2{fill:#5D4C72;stroke:#000000;stroke-width:2;stroke-miterlimit:10;}
	.st3{fill:#5D4C72;}
</style>
<g>
	<g>
		<linearGradient id="SVGID_1_" gradientUnits="userSpaceOnUse" x1="0" y1="223.6" x2="447.2" y2="223.6">
			<stop  offset="1.198083e-07" style="stop-color:#662D91"/>
			<stop  offset="1" style="stop-color:#1E1E3E"/>
		</linearGradient>
		<rect class="st0" width="447.2" height="447.2"/>
		<rect x="18.2" y="18.2" class="st1" width="410.8" height="410.8"/>
	</g>
</g>
<g id="Parent_3_">
	<g>
		<path class="st2" d="M180,236.5c-3-12.7-18.8-18.9-35.2-13.9c-4.3,1.3-8.2,3.3-11.5,5.6c-0.6,0.4-1.2,0.9-1.8,1.4
			c-0.1,0-0.1,0.1-0.2,0.1c-12.2,9.7-25.3,31.8-34.1,59.6c-13.2,41.5-11.8,79.9,3,85.9s37.5-22.8,50.7-64.3
			c4.9-15.6,7.8-30.8,8.7-43.9C173.9,261.2,182.8,248.2,180,236.5z"/>
		<path class="st2" d="M267.1,236.5c3-12.7,18.8-18.9,35.2-13.9c4.3,1.3,8.2,3.3,11.5,5.6c0.6,0.4,1.2,0.9,1.8,1.4
			c0.1,0,0.1,0.1,0.2,0.1c12.2,9.7,25.3,31.8,34.1,59.6c13.2,41.5,11.8,79.9-3,85.9s-37.5-22.8-50.7-64.3
			c-4.9-15.6-7.8-30.8-8.7-43.9C273.2,261.2,264.3,248.2,267.1,236.5z"/>
	</g>
	<g>
		<path class="st2" d="M310.4,428.2c1.4-13.2,2.2-27,2.2-41.1c0-103.6-39.9-187.6-89-187.6s-89,84-89,187.6
			c0,14.1,0.8,27.9,2.2,41.1H310.4z"/>
	</g>
	<circle class="st2" cx="223.6" cy="162.9" r="68.2"/>
	<g>
		<polygon class="st3" points="184.3,282.5 149.1,265.4 168.5,227 203.8,244.1 		"/>
		<polygon class="st3" points="262.6,282.5 297.9,265.4 278.4,227 243.2,244.1 		"/>
	</g>
</g>
</svg>
